<?xml version="1.0" standalone="no"?>
<!DOCTYPE svg PUBLIC "-//W3C//DTD SVG 1.1//EN"
  "http://www.w3.org/Graphics/SVG/1.1/DTD/svg11.dtd">
<svg width="878px" height="198px" viewBox="0 0 878 198"
    xmlns="http://www.w3.org/2000/svg" version="1.1"
    xmlns:xlink="http://www.w3.org/1999/xlink"
    onload="initSnow('snow', 0, 0, 878, 198, 50, 0.25, true)">
<title>Something Witty Goes Here Blog Header</title>
<desc>Something Witty Goes Here Blog Header</desc>
<script xlink:href="svgsnow.js"/>

 <!-- New SVG Logo -->
 <defs>
  <style type="text/css">
   <![CDATA[
    .str3 {stroke:black;stroke-width:0.503546}
    .fil10 {fill:#DE8500}
    .fil2 {fill:#FF9900}
    .fil8 {fill:#FFB13B}
    .fil4 {fill:black}
    .fil3 {fill:#3F3F3F}
    .fil1 {fill:white}
   ]]>
  </style>

  <!-- SVG 32x32 -->
  <g id="svg-32x32">
   <rect id="_151141056" class="fil2" x="315.486" y="180.991" width="136.426" height="136.426"/>
   <rect id="_151140504" class="fil10" x="383.697" y="249.205" width="68.2154" height="68.0039"/>
   <rect id="_151140120" class="fil8" x="315.487" y="180.99" width="68.2154" height="68.2154"/>
   <g>
    <circle id="_151139416" class="fil2" cx="340.757" cy="249.099" r="25.0634"/>
    <circle id="_151137016" class="fil2" transform="matrix(0.0106858 0.0106858 -0.0106858 0.0106858 353.365 218.661)" r="1658.51"/>
    <circle id="_151136448" class="fil2" transform="matrix(4.00234E-016 0.015112 -0.015112 4.00234E-016 383.803 206.053)" r="1658.51"/>
    <circle id="_151135880" class="fil2" transform="matrix(-0.0106858 0.0106858 -0.0106858 -0.0106858 414.241 218.661)" r="1658.51"/>
    <circle id="_151135312" class="fil2" cx="426.849" cy="249.099" r="25.0634"/>

    <circle id="_151134744" class="fil2" transform="matrix(-0.0106858 -0.0106858 0.0106858 -0.0106858 414.241 279.538)" r="1658.51"/>
    <circle id="_151134176" class="fil2" transform="matrix(-1.21077E-015 -0.015112 0.015112 -1.21077E-015 383.803 292.146)" r="1658.51"/>
    <circle id="_151038344" class="fil2" transform="matrix(0.0106858 -0.0106858 0.0106858 0.0106858 353.365 279.538)" r="1658.51"/>
   </g>
   <path id="_151038768" class="fil4" d="M401.634 206.051c0,-9.84433 -7.98625,-17.8306 -17.8306,-17.8306 -9.84433,0 -17.8306,7.98625 -17.8306,17.8306 -6.96405,-6.95901 -18.2536,-6.95901 -25.2176,0 -6.95901,6.96405 -6.95901,18.2536 0,25.2176 -9.84433,0 -17.8306,7.98625 -17.8306,17.8306 0,9.84433 7.98625,17.8306 17.8306,17.8306 -6.95901,6.96405 -6.95901,18.2536 0,25.2176 6.96405,6.95901 18.2536,6.95901 25.2176,0 0,9.84433 7.98625,17.8306 17.8306,17.8306 9.84433,0 17.8306,-7.98625 17.8306,-17.8306 6.96405,6.95901 18.2536,6.95901 25.2176,0 6.95901,-6.96405 6.95901,-18.2536 0,-25.2176 9.84433,0 17.8255,-7.98625 17.8255,-17.8306 0,-9.84433 -7.98121,-17.8306 -17.8255,-17.8306 6.95901,-6.96405 6.95901,-18.2536 0,-25.2176 -6.96405,-6.95901 -18.2536,-6.95901 -25.2176,0z"/>
   <path id="_151037224" class="fil1" d="M390.626 212.879l0 19.7441 13.9633 -13.9633c0,-2.46738 0.941632,-4.93979 2.8249,-6.82305 3.77156,-3.77156 9.88462,-3.77156 13.6511,0 3.77156,3.76653 3.77156,9.87958 0,13.6511 -1.88326,1.88326 -4.35568,2.8249 -6.82305,2.8249l-13.9633 13.9633 19.7441 0c1.74731,-1.74731 4.15929,-2.82993 6.82809,-2.82993 5.32752,0 9.64795,4.32546 9.64795,9.65298 0,5.32752 -4.32043,9.65298 -9.64795,9.65298 -2.6688,0 -5.08078,-1.08262 -6.82809,-2.82993l-19.7441 0 13.9633 13.9633c2.46738,0 4.93979,0.941632 6.82305,2.8249 3.77156,3.77156 3.77156,9.88462 0,13.6511 -3.76653,3.77156 -9.87958,3.77156 -13.6511,0 -1.88326,-1.88326 -2.8249,-4.35568 -2.8249,-6.82305l-13.9633 -13.9633 0 19.7441c1.74731,1.74731 2.82993,4.15929 2.82993,6.82809 0,5.32752 -4.32546,9.64795 -9.65298,9.64795 -5.32752,0 -9.65298,-4.32043 -9.65298,-9.64795 0,-2.6688 1.08262,-5.08078 2.82993,-6.82809l0 -19.7441 -13.9633 13.9633c0,2.46738 -0.941632,4.93979 -2.8249,6.82305 -3.77156,3.77156 -9.88462,3.77156 -13.6511,0 -3.77156,-3.76653 -3.77156,-9.87958 0,-13.6511 1.88326,-1.88326 4.35568,-2.8249 6.82305,-2.8249l13.9633 -13.9633 -19.7441 0c-1.74731,1.74731 -4.15929,2.82993 -6.82809,2.82993 -5.32752,0 -9.64795,-4.32546 -9.64795,-9.65298 0,-5.32752 4.32043,-9.65298 9.64795,-9.65298 2.6688,0 5.08078,1.08262 6.82809,2.82993l19.7441 0 -13.9633 -13.9633c-2.46738,0 -4.93979,-0.941632 -6.82305,-2.8249 -3.77156,-3.77156 -3.77156,-9.88462 0,-13.6511 3.76653,-3.77156 9.87958,-3.77156 13.6511,0 1.88326,1.88326 2.8249,4.35568 2.8249,6.82305l13.9633 13.9633 0 -19.7441c-1.74731,-1.74731 -2.82993,-4.15929 -2.82993,-6.82809 0,-5.32752 4.32546,-9.64795 9.65298,-9.64795 5.32752,0 9.65298,4.32043 9.65298,9.64795 0,2.6688 -1.08262,5.08078 -2.82993,6.82809z"/>
   <rect id="_151036536" class="fil4" x="322.929" y="249.203" width="121.742" height="60.7704"/>
   <rect id="_151035984" class="fil4" x="322.929" y="283.305" width="121.742" height="26.6689"/>
   <path id="_151164400" class="fil3" d="M335.689 254.84l97.2147 0c3.98305,0 7.23596,3.25291 7.23596,7.23596l0 24.4069c-37.5696,-4.64773 -74.8169,-11.073 -111.687,-10.4788l0 -13.9281c0,-3.98305 3.25291,-7.23596 7.23596,-7.23596z"/>
   <polygon id="_151164136" class="fil1 str3" points="399.594,253.198 388.355,307.481 379.04,307.481 367.795,253.198 377.111,253.198 383.697,284.992 390.279,253.198 "/>
   <path id="_151163752" class="fil1 str3" d="M415.496 275.682l15.902 0 0 15.897 0 0c0,8.78185 -7.12015,15.902 -15.897,15.902 -8.78185,0 -15.902,-7.12015 -15.902,-15.902l0 0 0 -22.4833 -0.00503546 0c0,-8.77681 7.12015,-15.897 15.902,-15.897 8.78185,0 15.902,7.12015 15.902,15.897l-9.31561 0c0,-3.63561 -2.95078,-6.58135 -6.58639,-6.58135 -3.63561,0 -6.58135,2.94575 -6.58135,6.58135l0 22.4833 0 0c0,3.63561 2.94575,6.58639 6.58135,6.58639 3.63561,0 6.58639,-2.95078 6.58639,-6.58135l0 -0.00503546 0 -6.58135 -6.58639 0 0 -9.31561z"/>
   <path id="_151162704" class="fil1 str3" d="M340.654 280.339c-2.87525,-2.88029 -4.6578,-6.85327 -4.6578,-11.2442 0,-8.78185 7.12015,-15.897 15.902,-15.897 8.77681,0 15.897,7.11511 15.897,15.897l-9.31057 0c0,-3.63561 -2.95078,-6.58639 -6.58639,-6.58639 -3.63561,0 -6.58639,2.95078 -6.58639,6.58639 0,1.8178 0.735178,3.45936 1.92355,4.65277l0.00503546 0c1.1934,1.1934 2.84,1.92858 4.6578,1.92858l0 0.00503546c4.39092,0 8.36391,1.77752 11.2392,4.6578l0 0c2.88029,2.87525 4.6578,6.85327 4.6578,11.2392 0,8.78185 -7.12015,15.902 -15.897,15.902 -8.78185,0 -15.902,-7.12015 -15.902,-15.902l9.31561 0c0,3.64064 2.95078,6.58639 6.58639,6.58639 3.63561,0 6.58639,-2.94575 6.58639,-6.58639 0,-1.81277 -0.735178,-3.45936 -1.92858,-4.65277l0 0c-1.1934,-1.18837 -2.84,-1.92858 -4.6578,-1.92858l0 0c-4.39092,0 -8.36391,-1.78255 -11.2442,-4.6578l0 0z"/>
  </g>
 </defs>

<g id="header" onclick="top.location.href='http://blog.codedread.com';" cursor="pointer" title="Welcome To My Blog" >
    <g id="img-and-text"
         onmouseover="document.getElementById('svglogo').setAttributeNS(null, 'fill-opacity', 0.4);"
         onmouseout="document.getElementById('svglogo').setAttributeNS(null, 'fill-opacity', 0.0);" >
      <image xlink:href="blog_header1.png" x="0" y="0" width="878" height="198" />
      <text x="439" y="150" font-size="38" font-weight="bold" fill="white" text-anchor="middle">Something Witty Goes Here</text>
      <text x="439" y="175" font-size="16" fill="white" text-anchor="middle">Software, Games, Cartoons, Film, DVDs</text>
      <g id="snow">
      </g>
    </g>

    <a xlink:href="http://www.w3.org/Graphics/SVG/" target="_top" title="Powered by Scalable Vector Graphics" >
      <use id="svglogo" xlink:href="#svg-32x32" transform="translate(840,160) scale(0.235) translate(-315.486,-180)" fill-opacity="0.0"
        onmouseover="document.getElementById('svglogo').setAttributeNS(null, 'fill-opacity', 1.0);"
        onmouseout="document.getElementById('svglogo').setAttributeNS(null, 'fill-opacity', 0.4);"  />
    </a>
</g>
</svg>